<?xml version="1.0" encoding="utf-8"?>
<!-- Generator: Adobe Illustrator 26.2.1, SVG Export Plug-In . SVG Version: 6.00 Build 0)  -->
<svg version="1.1" id="Layer_1" xmlns="http://www.w3.org/2000/svg" xmlns:xlink="http://www.w3.org/1999/xlink" x="0px" y="0px"
	 viewBox="0 0 1024 768" style="enable-background:new 0 0 1024 768;" xml:space="preserve">
<style type="text/css">
	.st0{fill:#F8F5F0;}
	.st1{fill:#432F14;}
	.st2{fill:#462C1C;}
	.st3{fill:#482F20;}
	.st4{fill:#E86C3B;}
	.st5{fill:#E27D58;}
	.st6{font-family:'SegoeScript-Bold';}
	.st7{font-size:52.7607px;}
</style>
<g>
	<g>
		<g>
			<path class="st0" d="M275.95,298.58c16.31-0.19,33.14-0.45,48.73-5.79c4.41-1.51,8.68-3.41,12.71-5.76
				c1.93-1.12,1.4-3.91-0.6-4.57c-7.09-2.33-14.4-3.87-21.82-4.66c-6.84-0.73-13.99-1.03-20.78,0.26c-3.14,0.59-6.28,1.67-8.97,3.42
				c-2.76,1.8-5.68,4.47-5.08,8.09c0.99,6,9.2,5.71,13.72,5.4c6.24-0.42,13.04-2.07,16.38-7.9c0.62-1.07,0.35-2.48-0.64-3.23
				c-1.07-0.8-2.28-0.61-3.28,0.2c-5.96,4.8-11.24,10.33-15.83,16.46c-1.17,1.56-2.28,3.15-3.34,4.78
				c-0.93,1.42-1.85,2.84-2.34,4.49c-1.08,3.59,0.77,7.6,4.99,7.25c2.14-0.18,4.3-0.96,6.38-1.46c2.04-0.49,4.08-0.95,6.13-1.4
				c4.18-0.9,8.38-1.7,12.59-2.41c8.29-1.39,16.64-2.38,25.03-2.99c4.18-0.31,8.37-0.52,12.56-0.63c2.18-0.06,4.35-0.09,6.53-0.1
				c1.92-0.01,3.93-0.13,5.81,0.29c1.88,0.42,3.63,1.41,5.61,1.32c1.78-0.08,3.38-0.94,4.37-2.43c1.68-2.55,1.08-6.23-0.89-8.44
				c-2.46-2.76-6.52-3.05-9.96-3c-4.23,0.06-8.45,0.23-12.68,0.24c-3.33,0.01-7.09-0.19-9.57-2.72c-2.02-2.06-1.63-4.93,0.04-7.09
				c2.09-2.7,5.63-3.66,8.84-4.22c4.02-0.7,8.14-0.95,12.21-1.14c8.56-0.4,17.14-0.12,25.7,0.28c0.98,0.05,1.96,0.09,2.94,0.14
				c0.85,0.04,2.02-0.05,2.69,0.22c-0.37-0.21-0.74-0.43-1.1-0.64c-0.03-0.02-0.25-0.89-0.23-0.9c0.11-0.02-0.51,0.45-0.06,0.15
				c-0.16,0.11-0.41,0.58-0.56,0.76c-0.57,0.66-1.21,1.29-1.9,1.83c-1.32,1.02-2.86,1.83-4.42,2.41c-3.58,1.32-7.34,1.75-11.13,1.84
				c-4.81,0.11-9.63-0.19-14.42,0.39c-4.46,0.54-8.6,1.92-12.73,3.63c-4.47,1.85-8.89,3.85-13.68,4.7c0.81,0.21,1.62,0.43,2.43,0.64
				c0.08,0.08-0.07-0.34-0.1-0.17c-0.03,0.27-0.03-0.21-0.03-0.21c0-0.29,0.06-0.53,0.2-0.82c0.45-0.97,1.44-1.35,2.48-1.6
				c1.26-0.3,2.57-0.31,3.85-0.36c1.8-0.08,3.6-0.18,5.4-0.29c6.93-0.44,13.84-1.16,20.71-2.1c13.42-1.84,26.63-5.4,40.14-6.48
				c6.92-0.55,13.84-0.2,20.75,0.18c6.93,0.38,13.87,0.76,20.8,1.14c6.93,0.38,13.87,0.76,20.8,1.14c1.65,0.09,3.3,0.18,4.95,0.27
				c1.58,0.09,3.25,0.03,4.8,0.32c1.21,0.22,1.7,1.21,2.28,2.2c0.82,1.39,1.57,2.83,2.23,4.31c2.59,5.78,3.82,12.5,2.44,18.75
				c-1.25,5.64-4.39,10.89-9.34,14.01c1.14,1.14,2.28,2.28,3.42,3.42c4.19-6.87,1.89-14.86,2-22.38c0.11-7.74,4.76-14.37,5.87-21.91
				c0.54-3.7,0.52-8.45-3.44-10.27c-3.15-1.45-7.14-0.18-9.32,2.41c-2.65,3.15-2.76,7.38-3.06,11.28c-0.33,4.27-1.29,8.48-2.77,12.5
				c-1.6,4.37-4.24,8.59-3.49,13.44c0.61,3.95,3.94,7.69,8.15,7.51c1.73-0.07,2.7-1.53,2.41-3.16c-0.9-5.07-2.65-9.98-5.12-14.5
				c-1.22-2.23-2.65-4.34-4.21-6.35c-1.53-1.97-3.19-4.1-5.27-5.52c-2.52-1.73-5.44-1.04-7.8,0.61c-2,1.41-3.94,3.03-5.27,5.11
				c-1.33,2.08-1.84,4.63-1.07,7.01c0.72,2.22,2.46,4.23,4.8,4.76c4.96,1.13,8.08-4.23,7.07-8.55c-1.17-5.01-6.74-6.87-11.16-7.86
				c-11.57-2.59-23.53-1.97-35.29-1.63c-6.71,0.2-13.46,0.22-20.16,0.61c-4.59,0.27-10.42,2.06-10.61,7.55
				c-0.04,1.21,0.83,1.99,1.84,2.41c14.3,5.97,30.17,4.94,45.13,2.51c4.35-0.71,8.68-1.55,13.01-2.41c1.32-0.26,2.09-1.84,1.75-3.08
				c-0.38-1.38-1.75-2.01-3.08-1.75c-18.15,3.61-37.77,7.3-55.48-0.09c0.61,0.8,1.22,1.61,1.84,2.41c0.01-0.3,0.11-0.59,0.21-0.72
				c0.38-0.47,0.87-0.77,1.58-1.06c1.17-0.48,2.65-0.71,3.97-0.78c4.92-0.25,9.85-0.3,14.77-0.45c9.58-0.28,19.24-0.86,28.81-0.18
				c4.43,0.32,8.95,0.9,13.21,2.2c1.54,0.47,3.22,1.12,4.26,2.41c0.71,0.88,0.82,1.83,0.39,2.89c0.13-0.31-0.3,0.48-0.2,0.36
				c0.08-0.11-0.53,0.42-0.26,0.25c-0.27,0.16-0.35,0.22-0.77-0.05c-0.84-0.54-1.15-1.9-0.9-2.83c0.45-1.65,1.85-2.89,3.12-3.94
				c0.91-0.75,2.49-2.34,3.68-1.48c1.67,1.21,3.11,3.17,4.34,4.81c1.36,1.8,2.57,3.72,3.64,5.71c2.17,4.05,3.62,8.42,4.42,12.94
				c0.8-1.05,1.61-2.11,2.41-3.16c-2.17,0.09-3.35-2.44-3.3-4.46c0.09-3.46,2.2-6.76,3.38-9.93c1.33-3.57,2.21-7.28,2.71-11.06
				c0.41-3.13,0.11-6.71,1.35-9.66c0.42-1.01,1.01-1.76,2-2.25c0.84-0.42,1.82-0.54,2.33-0.19c1.66,1.12,0.5,5.48,0.06,7.2
				c-1.68,6.56-5.11,12.5-5.45,19.39c-0.18,3.71,0.36,7.41,0.51,11.12c0.14,3.39-0.05,6.79-1.86,9.76c-1.29,2.11,1.3,4.76,3.42,3.42
				c6.39-4.02,10.65-10.91,11.9-18.31c1.43-8.44-0.69-17.02-4.78-24.45c-0.98-1.78-2.05-3.75-3.85-4.83
				c-1.86-1.12-4.13-1.09-6.23-1.2c-4.7-0.26-9.41-0.52-14.11-0.77c-9.41-0.52-18.82-1.03-28.23-1.55
				c-9.37-0.51-18.77-1.27-28.15-0.41c-9.16,0.84-18.16,2.79-27.2,4.45c-9.12,1.68-18.31,2.91-27.55,3.67
				c-4.46,0.36-8.99,0.33-13.43,0.86c-4.02,0.48-7.9,2.54-8.36,6.97c-0.18,1.72,0.45,3.98,2.05,4.91c1.08,0.63,2.49,0.17,3.62-0.09
				c1.05-0.24,2.09-0.54,3.11-0.87c3.93-1.27,7.65-3.06,11.5-4.54c3.94-1.51,7.9-2.47,12.12-2.68c4.55-0.23,9.12,0.08,13.67-0.22
				c7.09-0.46,15.42-2.61,19.58-8.93c1.1-1.67,1.33-4.02-0.21-5.5c-1.6-1.53-4.66-1.11-6.7-1.21c-4.65-0.22-9.3-0.42-13.96-0.5
				c-9-0.16-18.27-0.1-27.15,1.54c-3.85,0.71-7.86,2.2-10.48,5.24c-2.52,2.92-3.94,7.03-2.49,10.79c3.44,8.89,14.56,7.77,22.23,7.62
				c2.21-0.04,4.42-0.12,6.62-0.12c1.62,0,3.47,0.02,4.89,0.91c0.51,0.32,0.66,0.45,0.9,0.93c0.18,0.36,0.29,0.84,0.25,1.27
				c-0.03,0.24-0.12,0.49-0.25,0.75c0.14-0.28-0.04-0.03,0.05-0.05c-0.42,0.07-0.67,0.06-1.1-0.05c-0.9-0.22-1.76-0.61-2.66-0.86
				c-1.17-0.33-2.39-0.48-3.6-0.56c-2.2-0.16-4.43-0.08-6.63-0.05c-4.6,0.06-9.19,0.23-13.78,0.52c-9.24,0.58-18.44,1.62-27.58,3.09
				c-4.54,0.73-9.06,1.58-13.55,2.53c-2.21,0.47-4.41,0.97-6.61,1.49c-1.1,0.26-2.19,0.53-3.29,0.81c-0.54,0.14-1.07,0.28-1.61,0.41
				c-0.05,0.01-1,0.15-0.98,0.13c0.01-0.02,0.22,0.25,0.3,0.3c0.12,0.08-0.21,0.45-0.06-0.14c-0.06,0.23,0.01-0.39,0.03-0.49
				c0.06-0.42,0.35-1.15,0.61-1.65c0.93-1.78,2.17-3.46,3.33-5.09c2.29-3.24,4.82-6.29,7.55-9.17c2.77-2.93,5.75-5.66,8.89-8.19
				c-1.31-1.01-2.62-2.02-3.93-3.03c-2.11,3.68-6.51,4.87-10.48,5.29c-2.28,0.24-4.68,0.41-6.96,0.22
				c-0.72-0.06-1.65-0.23-2.41-0.54c0.09,0.04-0.83-0.48-0.64-0.33c-0.03-0.02-0.5-0.61-0.29-0.28c-0.15-0.24-0.17-0.08-0.13-0.38
				c-0.03,0.19,0.33-0.63,0.43-0.77c0.31-0.4,0.71-0.74,1.09-1.06c0.98-0.82,2.1-1.48,3.25-2.04c2.27-1.1,4.84-1.7,7.32-2.03
				c5.72-0.76,11.69-0.45,17.41,0.13c7.13,0.72,14.16,2.29,20.96,4.53c-0.2-1.52-0.4-3.05-0.6-4.57
				c-13.72,7.99-29.76,9.96-45.36,10.57c-4.52,0.18-9.04,0.24-13.56,0.29C272.74,293.62,272.73,298.62,275.95,298.58L275.95,298.58z
				"/>
		</g>
	</g>
	<g>
		<path class="st1" d="M508.8,636.99c-116-1.26-229.86-14.68-337.93-60.35c-45.4-19.19-87.11-44.07-121.44-80.11
			c-65.25-68.5-66.06-154.99-1.43-224.17c46.34-49.6,105.59-78.01,168.78-98.7c73.55-24.08,149.41-35.03,226.64-40.24
			c86.42-5.83,171.91-0.61,256.71,14.84c92.72,16.9,181.9,44.27,255.77,106.41c44.26,37.23,73.5,83.05,67.1,144.16
			c-5.17,49.38-33.19,85.99-69.89,116.54c-57.3,47.7-125.11,73.89-196.21,92.24C675.61,628.58,592.72,637.27,508.8,636.99z
			 M532.46,142.39c-107.14,0.19-198.72,13.21-287,45.21c-63.57,23.04-123.31,52.94-170.38,103.31
			c-54.21,58.02-53.66,128.17,0.86,185.97c29.95,31.75,65.7,55.31,104.59,74.24c99.54,48.47,205.5,69.2,315.53,71.65
			c119.04,2.65,234.55-14.16,343.92-63.63c48.73-22.04,93.64-49.73,127.73-92.12c42.23-52.52,42.37-113.62,0.73-166.55
			c-28.27-35.94-64.92-61.27-105.03-81.9C755.31,162.97,639.11,143.57,532.46,142.39z"/>
		<path class="st0" d="M270.14,324.83c-1.18-11.28-8.27-9.64-14.51-9.69c-17.67-0.14-35.35-0.41-53.02-0.52
			c-14.13-0.08-25.13-5.48-25.6-20.66c-0.46-14.78,11.33-20.01,23.75-20.97c16.41-1.26,32.96-1.02,49.45-0.93
			c7.32,0.04,13.87,0.06,18.27-7.36c2.44-4.11,7.43-7.97,11.75-6.64c16.97,5.23,34.41-7.01,51.02,1.95
			c3.52,1.9,6.75,0.36,10.19-0.42c23.66-5.35,47.17-0.28,70.76,0.14c19.34,0.35,39.35,4.34,58.83-1.37
			c12.64-3.7,24.7-3.26,32.87,9.16c4.78,7.26,12.68,5.89,19.13,6.88c12.59,1.94,19.77,8.19,19.45,20.71
			c-0.29,11.63-7.65,17.93-19.13,19.4c-4.44,0.57-10.19-1.03-11.86,5.12c-1.82,6.71,4.65,7.22,8.3,9.35
			c10.42,6.06,18.3,14.36,23.74,28.28c6.46-15.84,9.41-31.8,26.87-34.64c13.89-2.26,27.24-3.37,41.13,4.09
			c5.86,3.15,16.43-3.83,24.87-3.89c58.34-0.44,116.68-0.67,175.02-0.11c27.07,0.26,44.08,35.92,29.77,62.28
			c-3.6,6.63-3.98,9.52,0.75,16.11c11.71,16.33,4.41,34.27-0.99,50.57c-4.71,14.2-18.96,14.45-31.54,13.56
			c-30.87-2.18-61.72-0.25-92.88-3.52c-22.7-2.39-48.34,2.09-72.64,1.68c-22.47-0.38-44.72,3.32-67.77-3.01
			c-10.22-2.8-25.41,5.34-38.7,3.79c-27.14-3.15-54.06,7-81.98-1.93c-11.52-3.69-27.21,5.52-37.72-8.55
			c-0.27-0.36-2.23,0.18-3.16,0.71c-33.41,19.2-70.76,12.76-104.79,8.94c-33.91-3.81-66.3,6.2-99.51,1.56
			c-10.09-1.41-19.77-0.14-26.28-10.1c-6.23-9.54-0.92-16.78,2.12-25.96c7.58-22.93,7.94-47.2-0.55-70.07
			c-3.43-9.24-8.15-16.76-1.82-26.12c6.19-9.17,15.02-10.28,24.93-8.83C229.07,326.84,249.36,318.43,270.14,324.83z M360.43,282.41
			c-4.43-4.74-8.53-7.88-15.88-3.93c-9.14,4.91-16.83,10.44-19.97,20.77c-6.63-6.44,0.73-16.71-7.36-26.15
			c-1.42,9.22-2.41,15.69-4.21,27.45c-4.12-15.98-23.87-6.62-23.7-23.62c0-0.38,2.91,14.02,2.09,14.67
			c-7.34,5.78,2.17,2.34,3.7,9.74c1.25,6.06-10.56,12.85-4.52,8.79c12.14-8.15,23.53,2.17,34.47-2.63
			c4.08,6.16,9.63,2.47,11.77-0.33c7.68-10.06,13.55-4.44,19.88,0.97c10.62,4.35,18.03,3.62,19.9-10.24
			c1.08-8.03,5.3-14.54,15.56-11.38c0.72,7.58-3.39,17.25,7.58,20.69c18.55,5.83,39.81,0.94,48.53-10.86
			c4.3,3.88,0.9,13.51,7.68,13.78c6.35,0.26,3.17-7.21,4.54-11.13c7.41,0.3,16.31-1.57,20.64,5.66c2.2,3.67,0.23,10.22-2.65,15.05
			c-1.7,2.84-11.13-0.1-6.1,6.7c3.62,4.91,9.81,3.12,13.8-1.36c9.07-10.2,9.5-22.37,6.7-34.84c-3.83-17.06-10.23-19.88-23.38-8.15
			c-6.58,5.87-6.92-0.74-10.05-1.89c-12.33-4.28-13.69,9.23-21.07,12.98l-0.01-0.01c-1.9-4.75,2.18-13.6-3.21-14.21
			c-12.61-1.43-23.13,5.12-30.38,16.24c-3.63-6.85,2.31-14.97-5.18-18.57c-3.2-1.54-5.76,2.7-7.3,5.89
			C381.67,282.02,371.08,268.2,360.43,282.41z M729.53,347.31c10.45,0.2,9.45,8.17,9.54,14.77c0.27,19.4,0,38.81,0.23,58.22
			c0.11,8.96-0.61,17.45-10.76,25.04c30.79,0,58.35,0.03,85.91-0.03c4.51-0.01,9.45,1.08,10.46-6c1.35-9.46,4.33-18.81,1.28-29.58
			c-7.5,3.61-7.7,10.26-11.06,14.59c-7.4,9.55-43.41,16.44-46.18,8.18c-3.64-10.83-4.81-24.44,0.49-34.11
			c3.8-6.93,16.09-3.1,24.49-1.16c2.9,0.67,5.3,3.53,8.92,6.1c0-9.48,0-17.52,0-27.55c-7.17,8.77-15.52,9.24-24.4,9.76
			c-10.49,0.62-12.61-5-10.73-12.85c1.78-7.44-7.58-20.32,9.74-21.05c20.27-0.85,37.47,3.04,42.94,30.46
			c10.05-31.35,4.58-39.77-20.63-39.76c-19.41,0.01-38.82-0.29-58.21,0.24c-3.93,0.11-11.1-4.08-11.74,4.97
			c-5.59-4.71-12.12-5.39-19.18-5.31c-22.35,0.26-44.71-0.2-67.05,0.3c-5.8,0.13-15.8-3.82-16.72,3.72
			c-1.19,9.68-9.92,20.37-0.43,31.03c13.8-20.28,16.23-22.76,24.78-24.13c4.39-0.7,10.52-2.87,10.01,5
			c-1.85,28.9,5.58,58.39-5.34,86.73c7.04,0,14.08,0,21.11,0c6.96,0,13.92,0,24.7,0c-13.15-8.08-12.21-18.82-12.19-29.3
			c0.02-15.88-0.29-31.77,0.17-47.64c0.15-5.27-3.51-13.05,4.44-15.14c6.28-1.65,12.4,1.54,17.87,5.64
			c6.32,4.74,6.6,14.52,14.48,18.36C731.57,366.53,724.44,356.38,729.53,347.31z M500.53,378.8c9.4,5.36,17.76,3.35,22.14-6.03
			c4.07-8.74,1.19-17.7-6.84-23.42c-16.51-11.74-34.84-13.13-53.52-6.49c-10.81,3.84-19.35,10.53-21.32,23.34
			c-1.91,12.43,4.42,20.31,13.64,26.34c11.26,7.37,23.4,13.4,34.5,20.98c6.33,4.32,15.86,9.09,11.04,19.02
			c-4.25,8.75-13.89,7.26-22.07,6.43c-8.74-0.88-15.3-5.95-20.07-12.87c-4.62-6.7-8.57-13.91-12.28-21.17
			c-1.39-2.73-2.07-5.68-5.76-5.08c-3.56,0.58-4.28,3.63-4.3,6.65c-0.07,12.45-0.03,24.91-0.03,41.48
			c8.56-13.24,16.34-10.95,24.64-6.32c17.19,9.59,34.97,8.74,52.58,1.55c20.87-8.52,24.62-30.15,7.62-44.77
			c-7.01-6.03-15.3-10.56-23.01-15.77C498.51,381.39,499.52,380.1,500.53,378.8z M205.16,445.26c15.8,0,34.05,0.67,52.23-0.16
			c25.79-1.17,46.12-23.95,46.37-50.65c0.25-26.14-19.13-50.4-42.91-51.71c-20.15-1.11-40.41-0.23-57.68-0.23
			C212.43,377.35,209.92,411.01,205.16,445.26z M377.86,373.73c-6.92,8.46-14.59,10.93-23.77,11.69
			c-13.13,1.09-12.75-6.68-12.18-15.35c0.56-8.45-4.65-19.9,11.9-19.37c15.47,0.5,29.4,2.29,36.61,18.63
			c1.38,3.14,4.61,9.86,8.02,3.55c4.35-8.05-1.35-17.12-2.48-25.76c-1.05-8.03-8.13-5.16-12.75-5.21
			c-25.87-0.29-51.75-0.14-74.71-0.14c6.91,35.09,9.02,69.11-0.39,103.44c21.41,0,45-0.95,68.47,0.33
			c16.17,0.88,26.19-1.96,24.22-20.87c-0.5-4.76,4.99-11.65-2.13-13.69c-5.51-1.57-5.49,6.07-7.73,9.82
			c-6.81,11.42-37.31,21.52-45.35,13.29c-8.27-8.47-2.71-21.3-3.16-32.15c-0.41-9.82,8.21-5.39,13.21-6.33
			c8.35-1.58,15.33,1.75,22.25,8.63C377.86,393.35,377.86,384.62,377.86,373.73z M559.4,444.82c-8.08-8.02-7.65-18.72-2.38-21.7
			c10.05-5.67,23.78-5.14,33.96-0.71c7.91,3.44,3.26,14.28,0.74,21.86c15.01,0,29.89,0,48.57,0c-13.05-7.31-16.58-16.79-19.51-27.06
			c-5.76-20.23-12.06-40.32-18.58-60.32c-2.49-7.65-1.19-18.64-14.79-17.89c-12.53,0.69-18.93,5.21-23.4,18.49
			c-9.9,29.38-12.07,61.78-32.9,87.33C540.06,444.82,548.23,444.82,559.4,444.82z M420.84,323.77c-4.75,6.69-12.47,9.74-12.8,17.32
			c-0.32,7.37,5.1,9.65,11.79,9.3c7.47-0.39,12.21-3.59,11.81-11.77C431.29,331.31,422.88,330.67,420.84,323.77z M721.26,412.16
			c-1.27-6.99,3.37-17.93-7.81-18.1c-7.28-0.11-4.42,9.43-4.23,14.51c0.25,6.74-4.24,17.89,6.08,18.71
			C723.96,427.98,719.69,417.49,721.26,412.16z M260.92,295.51c-19.5-5.9-38.83-7.09-57.89,0
			C222.32,295.51,241.62,295.51,260.92,295.51z M418.28,369.63c0.63,12.62-10.11,16.57-6.53,25.75c0.73,1.87,3.56,3.61,5.73,1.54
			C423.97,390.72,426.3,383.54,418.28,369.63z"/>
		<path class="st2" d="M205.16,445.26c4.77-34.25,7.27-67.9-1.99-102.75c17.27,0,37.53-0.88,57.68,0.23
			c23.78,1.31,43.17,25.57,42.91,51.71c-0.26,26.7-20.59,49.48-46.37,50.65C239.21,445.92,220.96,445.26,205.16,445.26z
			 M236.84,394.11c0,8.23-0.51,16.51,0.18,24.69c0.45,5.29-3.97,12.98,3.29,15.51c8.16,2.84,15.99-0.1,22.15-6.88
			c13.95-15.32,14.2-51.76,0.29-67.11c-4.1-4.52-9.01-7.4-15.09-8.36c-6.83-1.08-11.41-0.2-10.98,8.62
			C237.22,371.74,236.81,382.94,236.84,394.11z"/>
		<path class="st3" d="M497.5,382.68c7.71,5.21,16,9.74,23.01,15.77c16.99,14.62,13.25,36.25-7.62,44.77
			c-17.61,7.19-35.39,8.04-52.58-1.55c-8.3-4.63-16.08-6.92-24.64,6.32c0-16.57-0.04-29.02,0.03-41.48c0.02-3.03,0.74-6.07,4.3-6.65
			c3.69-0.6,4.36,2.35,5.76,5.08c3.71,7.26,7.66,14.46,12.28,21.17c4.76,6.92,11.33,11.99,20.07,12.87
			c8.18,0.83,17.82,2.32,22.07-6.43c4.82-9.92-4.71-14.7-11.04-19.02c-11.1-7.58-23.24-13.61-34.5-20.98
			c-9.22-6.03-15.54-13.91-13.64-26.34c1.97-12.81,10.51-19.5,21.32-23.34c18.68-6.63,37.01-5.25,53.52,6.49
			c8.04,5.72,10.92,14.68,6.84,23.42c-4.37,9.38-12.73,11.4-22.14,6.03c-5.81-4.56-5.74-10.85-5.53-17.42
			c0.25-7.79-4.29-11.89-11.76-12.33c-5.28-0.31-10.74,0.21-13.48,5.89c-3.66,7.6,1.45,12.23,6.53,16.08
			C482.73,375.9,489.41,380.67,497.5,382.68z"/>
		<path class="st3" d="M377.86,373.73c0,10.9,0,19.63,0,30.51c-6.91-6.88-13.9-10.21-22.25-8.63c-4.99,0.94-13.62-3.48-13.21,6.33
			c0.45,10.85-5.11,23.68,3.16,32.15c8.04,8.23,38.54-1.87,45.35-13.29c2.24-3.76,2.22-11.39,7.73-9.82
			c7.13,2.04,1.64,8.93,2.13,13.69c1.97,18.91-8.05,21.76-24.22,20.87c-23.47-1.28-47.05-0.33-68.47-0.33
			c9.41-34.33,7.3-68.34,0.39-103.44c22.96,0,48.84-0.15,74.71,0.14c4.62,0.05,11.7-2.83,12.75,5.21
			c1.13,8.63,6.83,17.71,2.48,25.76c-3.41,6.3-6.64-0.41-8.02-3.55c-7.21-16.34-21.14-18.13-36.61-18.63
			c-16.55-0.54-11.35,10.91-11.9,19.37c-0.57,8.67-0.95,16.44,12.18,15.35C363.27,384.65,370.93,382.18,377.86,373.73z"/>
		<path class="st2" d="M729.88,347.59c0.59-9.09,7.75-4.91,11.68-5.01c19.39-0.53,38.81-0.23,58.21-0.24
			c25.22-0.01,30.68,8.41,20.63,39.76c-5.47-27.41-22.67-31.3-42.94-30.46c-17.32,0.73-7.96,13.6-9.74,21.05
			c-1.87,7.84,0.24,13.47,10.73,12.85c8.87-0.52,17.23-0.98,24.4-9.76c0,10.03,0,18.07,0,27.55c-3.63-2.57-6.02-5.43-8.92-6.1
			c-8.41-1.94-20.7-5.77-24.49,1.16c-5.3,9.67-4.12,23.27-0.49,34.11c2.77,8.25,38.78,1.37,46.18-8.18
			c3.36-4.33,3.56-10.98,11.06-14.59c3.05,10.77,0.07,20.12-1.28,29.58c-1.01,7.08-5.95,6-10.46,6
			c-27.56,0.05-55.12,0.03-85.91,0.03c10.15-7.59,10.87-16.07,10.76-25.04c-0.23-19.4,0.04-38.81-0.23-58.22
			c-0.09-6.6,0.91-14.57-9.54-14.77L729.88,347.59z"/>
		<path class="st3" d="M559.4,444.82c-11.17,0-19.34,0-28.29,0c20.83-25.55,23.01-57.95,32.9-87.33
			c4.47-13.28,10.87-17.8,23.4-18.49c13.6-0.75,12.3,10.24,14.79,17.89c6.52,20,12.82,40.09,18.58,60.32
			c2.92,10.27,6.45,19.75,19.51,27.06c-18.69,0-33.56,0-48.57,0c2.51-7.58,7.16-18.42-0.74-21.86c-10.18-4.43-23.9-4.96-33.96,0.71
			C551.74,426.1,551.31,436.81,559.4,444.82z M588.86,409.43c-4.61-15.37-8.94-29.78-14.51-48.34c-5.7,18.75-10.08,33.14-14.7,48.34
			C569.64,409.43,578.35,409.43,588.86,409.43z"/>
		<path class="st2" d="M729.53,347.31c-5.09,9.07,2.04,19.22-3.07,29.48c-7.88-3.83-8.16-13.62-14.48-18.36
			c-5.47-4.1-11.59-7.29-17.87-5.64c-7.95,2.09-4.29,9.88-4.44,15.14c-0.46,15.87-0.15,31.76-0.17,47.64
			c-0.01,10.49-0.95,21.23,12.19,29.3c-10.78,0-17.74,0-24.7,0c-7.04,0-14.08,0-21.09-0.01c10.9-28.34,3.48-57.82,5.32-86.73
			c0.5-7.86-5.62-5.7-10.01-5c-8.55,1.37-10.98,3.85-24.78,24.13c-9.49-10.66-0.75-21.35,0.43-31.03
			c0.92-7.54,10.92-3.59,16.72-3.72c22.34-0.49,44.7-0.04,67.05-0.3c7.06-0.08,13.6,0.59,19.21,5.33
			C729.88,347.59,729.53,347.31,729.53,347.31z"/>
		<path class="st4" d="M420.84,323.77c2.04,6.9,10.45,7.54,10.81,14.85c0.4,8.19-4.34,11.38-11.81,11.77
			c-6.69,0.35-12.11-1.94-11.79-9.3C408.37,333.51,416.09,330.46,420.84,323.77z"/>
		<path class="st5" d="M260.92,295.51c-19.3,0-38.6,0-57.89,0C222.08,288.42,241.41,289.61,260.92,295.51z"/>
		<path class="st0" d="M236.83,394.11c-0.01-11.18,0.4-22.37-0.15-33.52c-0.43-8.82,4.15-9.7,10.98-8.62
			c6.08,0.96,11,3.84,15.09,8.36c13.91,15.35,13.65,51.78-0.29,67.11c-6.16,6.77-13.99,9.72-22.15,6.88
			c-7.26-2.53-2.84-10.22-3.29-15.51C236.33,410.62,236.84,402.35,236.83,394.11z"/>
		<path class="st0" d="M497.5,382.68c-8.09-2.02-14.77-6.78-21.21-11.66c-5.08-3.85-10.18-8.48-6.53-16.08
			c2.73-5.68,8.19-6.21,13.48-5.89c7.47,0.44,12.01,4.54,11.76,12.33c-0.21,6.58-0.28,12.87,5.53,17.42
			C499.52,380.1,498.51,381.39,497.5,382.68z"/>
		<path class="st0" d="M588.86,409.43c-10.5,0-19.22,0-29.21,0c4.62-15.2,9-29.59,14.7-48.34
			C579.92,379.66,584.24,394.06,588.86,409.43z"/>
	</g>
	<text transform="matrix(1 0 0 1 279.5488 307.1787)" class="st2 st6 st7">warung</text>
</g>
</svg>
